# xmcd CD database file
#
# Track frame offsets:
#	150
#	15011
#	26539
#	41839
#	54032
#	65402
#	79028
#	93222
#	108311
#	123261
#
# Disc length: 1801 seconds
#
# Revision: 0
# Processed by: cddbd v1.5.1PL2 Copyright (c) Steve Scherf et al.
# Submitted via: CDex 1,1,13,0
#
DISCID=6707070a
DTITLE=Louis Armstrong - Original Artist 1
DYEAR=2003
DGENRE=Jazz
TTITLE0=Wild man blues
TTITLE1=Dippermouth blues
TTITLE2=Chimes blues
TTITLE3=Swing, You cats
TTITLE4=Canal street blues
TTITLE5=Camp meeting blues
TTITLE6=I'll get mine Bye and bye
TTITLE7=West end blues
TTITLE8=Snake rag
TTITLE9=Mighty river
EXTD=YEAR: 2003
EXTT0=
EXTT1=
EXTT2=
EXTT3=
EXTT4=
EXTT5=
EXTT6=
EXTT7=
EXTT8=
EXTT9=
PLAYORDER=
